<?xml version="1.0" encoding="UTF-8" standalone="no"?>
<!DOCTYPE svg PUBLIC "-//W3C//DTD SVG 1.1//EN" "http://www.w3.org/Graphics/SVG/1.1/DTD/svg11.dtd">
<svg width="100%" height="100%" viewBox="0 0 858 197" version="1.1" xmlns="http://www.w3.org/2000/svg" xmlns:xlink="http://www.w3.org/1999/xlink" xml:space="preserve" xmlns:serif="http://www.serif.com/" style="fill-rule:evenodd;clip-rule:evenodd;stroke-linecap:round;stroke-linejoin:round;stroke-miterlimit:10;">
    <g id="Artboard1" transform="matrix(0.923791,0,0,0.677389,26.3215,24.8285)">
        <rect x="-28.493" y="-36.653" width="928.493" height="290.285" style="fill:none;"/>
        <g id="SceneSilhouetteCurves" transform="matrix(1.0825,0,0,1.47626,22.9522,-26.1699)">
            <g transform="matrix(-0.459297,-0.40007,0.40007,-0.459297,121.408,413.121)">
                <path d="M321.011,276.997L442.065,226.772L507.047,226.772C507.047,226.772 527.344,388.7 527.344,388.7L507.588,423.858L386.534,474.084L321.553,474.084C321.553,474.084 301.255,312.156 301.255,312.156L321.011,276.997Z" style="fill:rgb(244,219,234);fill-rule:nonzero;"/>
                <path d="M526.854,384.788L541.293,396.538L521.537,431.696L513.72,438.637L392.666,488.863L386.534,490.084L321.553,490.084L311.044,462.019C311.043,462.019 305.671,476.026 305.671,476.026C305.671,476.026 305.437,474.163 305.109,471.54C301.82,445.308 285.38,314.146 285.38,314.146L287.307,304.318L307.062,269.159L314.879,262.219L435.933,211.993L442.065,210.772L507.047,210.772L496.538,214.707C496.538,214.707 522.927,224.821 522.927,224.821L543.214,386.662L526.282,380.226L507.047,226.772L442.065,226.772L321.011,276.997L301.255,312.156C301.255,312.156 321.553,474.084 321.553,474.084L386.534,474.084L507.588,423.858L527.344,388.7L526.854,384.788Z" style="fill:rgb(16,1,10);"/>
            </g>
            <g id="Layer1">
                <g transform="matrix(0.609106,0,0,0.609106,-294.884,-19.0179)">
                    <path d="M752.367,140.78L703.367,98.099L650.254,177.102L661.315,276.214L752.367,140.78Z" style="fill:rgb(255,164,216);"/>
                </g>
                <g transform="matrix(0.609106,0,0,0.609106,-294.884,-19.0179)">
                    <path d="M450.056,205.431L661.315,276.214L650.254,177.102L525.984,135.465L450.056,205.431Z" style="fill:rgb(255,234,247);"/>
                </g>
                <g transform="matrix(0.609106,0,0,0.609106,-294.884,-19.0179)">
                    <path d="M579.097,56.462L703.367,98.099L650.254,177.102L525.984,135.465L579.097,56.462Z" style="fill:rgb(255,206,236);"/>
                </g>
                <g transform="matrix(0.609106,0,0,0.609106,-402.857,-53.5156)">
                    <path d="M755.836,113.099L718.372,126.634L627.32,262.068L703.248,192.102L755.836,113.099Z" style="fill:rgb(255,76,204);"/>
                </g>
                <g transform="matrix(0.609106,0,0,0.609106,-389.067,17.5327)">
                    <path d="M815.939,216.207L604.68,145.424L653.68,188.105L777.95,229.742L815.939,216.207Z" style="fill:rgb(255,126,206);"/>
                </g>
            </g>
            <g id="Visible">
                <g id="Curves">
                    <g transform="matrix(0.577549,0.193511,-0.193511,0.577549,-246.083,-127.893)">
                        <path d="M522.589,156.284L653.648,156.284" style="fill:none;fill-rule:nonzero;stroke:rgb(222,9,136);stroke-width:2px;"/>
                    </g>
                    <g transform="matrix(-0.339839,0.505489,-0.505489,-0.339839,277.955,-207.257)">
                        <path d="M504.942,95.964L600.139,95.964" style="fill:none;fill-rule:nonzero;stroke:rgb(222,9,136);stroke-width:4px;"/>
                    </g>
                    <g transform="matrix(0.339839,-0.505489,0.505489,0.339839,-182.198,360.153)">
                        <path d="M629.212,137.601L724.409,137.601" style="fill:none;fill-rule:nonzero;stroke:rgb(222,9,136);stroke-width:2px;"/>
                    </g>
                    <g transform="matrix(-0.577549,-0.193511,0.193511,-0.577549,317.921,374.286)">
                        <path d="M444.285,240.823L667.086,240.823" style="fill:none;fill-rule:nonzero;stroke:rgb(222,9,136);stroke-width:4px;"/>
                    </g>
                    <g transform="matrix(0.577549,0.193511,-0.193511,0.577549,-225.134,-119.128)">
                        <path d="M495.661,268.931L626.72,268.931" style="fill:none;fill-rule:nonzero;stroke:rgb(222,9,136);stroke-width:0.24px;"/>
                    </g>
                    <g transform="matrix(-0.577549,-0.193511,0.193511,-0.577549,451.083,196.773)">
                        <path d="M575.702,77.281L706.762,77.281" style="fill:none;fill-rule:nonzero;stroke:rgb(222,9,136);stroke-width:0.24px;"/>
                    </g>
                    <g transform="matrix(-0.459297,-0.40007,0.40007,-0.459297,121.408,413.121)">
                        <path d="M442.065,226.772L507.047,226.772" style="fill:none;fill-rule:nonzero;stroke:rgb(222,9,136);stroke-width:0.24px;"/>
                    </g>
                    <g transform="matrix(0.0675591,0.605347,-0.605347,0.0675591,197.46,-293.249)">
                        <path d="M605.921,226.658L705.648,226.658" style="fill:none;fill-rule:nonzero;stroke:rgb(222,9,136);stroke-width:2px;"/>
                    </g>
                    <g transform="matrix(0.339839,-0.505489,0.505489,0.339839,-231.053,268.575)">
                        <path d="M413.984,137.714L577.18,137.714" style="fill:none;fill-rule:nonzero;stroke:rgb(222,9,136);stroke-width:0.24px;"/>
                    </g>
                    <g transform="matrix(-0.447929,0.412758,-0.412758,-0.447929,291.323,-40.2826)">
                        <path d="M436.396,170.448L539.644,170.448" style="fill:none;fill-rule:nonzero;stroke:rgb(222,9,136);stroke-width:4px;"/>
                    </g>
                    <g transform="matrix(-0.573776,0.204428,-0.204428,-0.573776,380.577,-58.7258)">
                        <path d="M539.938,63.229L580.267,63.229" style="fill:none;fill-rule:nonzero;stroke:rgb(222,9,136);stroke-width:0.24px;"/>
                    </g>
                    <g transform="matrix(-0.339839,0.505489,-0.505489,-0.339839,481.262,-178.466)">
                        <path d="M625.243,208.497L788.439,208.497L625.243,208.497" style="fill:none;fill-rule:nonzero;stroke:rgb(222,9,136);stroke-width:0.24px;"/>
                    </g>
                    <g transform="matrix(0.459297,0.40007,-0.40007,0.459297,-138.059,-292.323)">
                        <path d="M760.358,119.44L695.376,119.44L760.358,119.44Z" style="fill:none;fill-rule:nonzero;stroke:rgb(222,9,136);stroke-width:0.24px;"/>
                    </g>
                    <g transform="matrix(0.573776,-0.204429,0.204429,0.573776,-330.041,122.288)">
                        <path d="M622.156,282.982L662.484,282.982L622.156,282.982Z" style="fill:none;fill-rule:nonzero;stroke:rgb(222,9,136);stroke-width:0.24px;"/>
                    </g>
                </g>
            </g>
            <g transform="matrix(-0.459297,-0.40007,0.40007,-0.459297,121.408,413.121)">
                <path d="M543.22,386.712L541.293,396.538L521.537,431.696L513.72,438.637L392.666,488.863L386.534,490.084L321.553,490.084C321.553,490.084 305.671,476.026 305.671,476.026C305.671,476.026 305.437,474.163 305.109,471.54C301.82,445.308 285.38,314.146 285.38,314.146L287.307,304.318L307.062,269.159L314.879,262.219L435.933,211.993L442.065,210.772L507.047,210.772C507.047,210.772 522.927,224.821 522.927,224.821C522.927,224.821 523.117,226.332 523.386,228.48C526.079,249.965 539.692,358.567 542.652,382.176C542.98,384.799 543.22,386.712 543.22,386.712L527.344,388.7L507.047,226.772L442.065,226.772L321.011,276.997L301.255,312.156C301.255,312.156 321.553,474.084 321.553,474.084L386.534,474.084L507.588,423.858L527.344,388.7L543.22,386.712Z" style="fill:rgb(222,9,136);"/>
            </g>
            <g transform="matrix(1,0,0,1,-47.5246,-7.10128)">
                <path d="M311.322,148.164C297.616,148.164 286.488,144.873 277.938,138.291C269.388,131.709 264.842,122.99 264.299,112.133L283.638,112.133C284.452,119.19 287.471,124.686 292.696,128.622C297.921,132.557 304.333,134.525 311.933,134.525C319.533,134.525 325.775,132.965 330.661,129.843C335.546,126.722 337.989,122.447 337.989,117.019C337.989,112.133 336.462,108.435 333.409,105.925C330.355,103.414 324.079,101.005 314.579,98.698L301.348,95.645C289.27,92.931 280.652,89.131 275.495,84.245C270.338,79.36 267.76,72.981 267.76,65.11C267.76,55.746 271.899,48.248 280.177,42.617C288.455,36.985 298.837,34.169 311.322,34.169C322.993,34.169 332.832,37.052 340.839,42.82C348.846,48.588 353.324,57.036 354.274,68.164L335.546,68.164C333.646,54.593 325.232,47.807 310.304,47.807C302.976,47.807 297.242,49.368 293.103,52.489C288.964,55.611 286.895,59.41 286.895,63.889C286.895,67.824 288.116,70.912 290.559,73.151C293.002,75.39 297.819,77.324 305.012,78.953L322.315,83.024C333.986,85.738 342.705,89.504 348.473,94.322C354.24,99.139 357.124,106.162 357.124,115.39C357.124,125.84 352.883,133.915 344.401,139.614C335.919,145.314 324.893,148.164 311.322,148.164Z" style="fill:rgb(222,9,136);fill-rule:nonzero;"/>
            </g>
            <g transform="matrix(1,0,0,1,-47.5246,-7.10128)">
                <path d="M419.414,148.164C407.336,148.164 397.803,144.398 390.814,136.866C383.825,129.334 380.33,118.444 380.33,104.194L380.33,37.222L399.262,37.222L399.262,98.087C399.262,120.887 407.743,132.286 424.707,132.286C433.392,132.286 440.28,129.233 445.369,123.126C450.458,117.019 453.002,108.944 453.002,98.902L453.002,37.222L471.934,37.222L471.934,145.111L453.002,145.111L453.002,130.454C446.081,142.261 434.885,148.164 419.414,148.164Z" style="fill:rgb(222,9,136);fill-rule:nonzero;"/>
            </g>
            <g transform="matrix(1,0,0,1,-47.5246,-7.10128)">
                <path d="M551.73,184.805C537.345,184.805 525.708,181.48 516.819,174.831C507.93,168.181 503.214,159.971 502.672,150.2L522.621,150.2C525.335,163.77 535.377,170.556 552.748,170.556C569.305,170.556 579.686,164.245 583.893,151.625C585.658,146.332 586.54,140.225 586.54,133.304L586.54,123.94C582.333,129.775 576.836,134.254 570.051,137.375C563.266,140.496 556.073,142.057 548.473,142.057C533.681,142.057 521.332,137.07 511.425,127.095C501.518,117.121 496.565,104.126 496.565,88.113C496.565,72.099 501.518,59.105 511.425,49.131C521.332,39.156 533.681,34.169 548.473,34.169C555.937,34.169 563.062,35.797 569.847,39.054C576.633,42.311 582.197,46.925 586.54,52.896L586.54,37.222L605.471,37.222L605.471,134.932C605.471,146.739 603.096,156.578 598.346,164.449C590.068,178.02 574.529,184.805 551.73,184.805ZM526.285,116.408C533.342,123.329 541.824,126.79 551.73,126.79C561.637,126.79 570.085,123.329 577.074,116.408C584.063,109.487 587.557,100.055 587.557,88.113C587.557,76.17 584.063,66.739 577.074,59.818C570.085,52.896 561.637,49.436 551.73,49.436C541.824,49.436 533.376,52.896 526.387,59.818C519.398,66.739 515.903,76.17 515.903,88.113C515.903,100.055 519.364,109.487 526.285,116.408Z" style="fill:rgb(222,9,136);fill-rule:nonzero;"/>
            </g>
            <g transform="matrix(1,0,0,1,-47.5246,-7.10128)">
                <path d="M714.377,45.568C718.041,49.504 720.552,53.846 721.909,58.596C723.266,63.346 723.945,69.724 723.945,77.731L723.945,145.111L705.624,145.111L705.624,131.472C703.046,135.95 698.873,139.852 693.105,143.177C687.337,146.502 679.975,148.164 671.018,148.164C657.719,148.164 647.473,145.043 640.28,138.8C633.088,132.557 629.491,124.822 629.491,115.594C629.491,106.094 633.054,98.732 640.179,93.507C647.303,88.283 658.262,84.313 673.054,81.599L689.746,78.342C694.632,77.392 698.262,75.967 700.637,74.067C703.012,72.167 704.199,69.385 704.199,65.721C704.199,60.021 702.062,55.678 697.787,52.693C693.512,49.707 687.71,48.214 680.382,48.214C673.054,48.214 666.947,49.911 662.062,53.304C657.176,56.696 654.394,61.989 653.715,69.181L634.173,69.181C634.716,58.053 639.33,49.436 648.016,43.329C656.701,37.222 667.354,34.169 679.975,34.169C695.717,34.169 707.185,37.968 714.377,45.568ZM705.217,105.009L705.217,85.874C702.638,87.909 695.989,90.216 685.268,92.795L674.275,95.238C665.997,97.137 659.856,99.682 655.853,102.871C651.849,106.06 649.848,110.301 649.848,115.594C649.848,121.294 652.087,125.908 656.565,129.436C661.044,132.965 667.083,134.729 674.682,134.729C683.911,134.729 691.307,132.015 696.871,126.586C702.435,121.158 705.217,113.965 705.217,105.009Z" style="fill:rgb(222,9,136);fill-rule:nonzero;"/>
            </g>
            <g transform="matrix(1,0,0,1,-47.5246,-7.10128)">
                <path d="M753.869,145.111L753.869,37.222L772.8,37.222L772.8,54.729C775.378,48.757 779.348,44.177 784.708,40.988C790.069,37.799 797.635,36.204 807.406,36.204L834.48,36.204L834.48,53.1L807.406,53.1C795.328,53.1 786.54,55.78 781.044,61.141C775.548,66.501 772.8,75.424 772.8,87.909L772.8,145.111L753.869,145.111Z" style="fill:rgb(222,9,136);fill-rule:nonzero;"/>
            </g>
        </g>
    </g>
</svg>
