<?xml version="1.0" encoding="UTF-8" standalone="no"?>
<!DOCTYPE svg PUBLIC "-//W3C//DTD SVG 1.1//EN" "http://www.w3.org/Graphics/SVG/1.1/DTD/svg11.dtd">
<svg width="100%" height="100%" viewBox="0 0 858 197" version="1.1" xmlns="http://www.w3.org/2000/svg" xmlns:xlink="http://www.w3.org/1999/xlink" xml:space="preserve" xmlns:serif="http://www.serif.com/" style="fill-rule:evenodd;clip-rule:evenodd;stroke-linecap:round;stroke-linejoin:round;stroke-miterlimit:10;">
    <g id="Artboard1" transform="matrix(0.923791,0,0,0.677389,26.3215,24.8285)">
        <rect x="-28.493" y="-36.653" width="928.493" height="290.285" style="fill:none;"/>
        <g id="SceneSilhouetteCurves" transform="matrix(1.0825,0,0,1.47626,22.9522,-26.1699)">
            <g transform="matrix(-0.459297,-0.40007,0.40007,-0.459297,131.408,413.121)">
                <path d="M321.011,276.997L442.065,226.772L507.047,226.772C507.047,226.772 527.344,388.7 527.344,388.7L507.588,423.858L386.534,474.084L321.553,474.084C321.553,474.084 301.255,312.156 301.255,312.156L321.011,276.997Z" style="fill:rgb(244,219,234);fill-rule:nonzero;"/>
                <path d="M526.854,384.788L541.293,396.538L521.537,431.696L513.72,438.637L392.666,488.863L386.534,490.084L321.553,490.084L311.044,462.019C311.043,462.019 305.671,476.026 305.671,476.026C305.671,476.026 305.437,474.163 305.109,471.54C301.82,445.308 285.38,314.146 285.38,314.146L287.307,304.318L307.062,269.159L314.879,262.219L435.933,211.993L442.065,210.772L507.047,210.772L496.538,214.707C496.538,214.707 522.927,224.821 522.927,224.821L543.214,386.662L526.282,380.226L507.047,226.772L442.065,226.772L321.011,276.997L301.255,312.156C301.255,312.156 321.553,474.084 321.553,474.084L386.534,474.084L507.588,423.858L527.344,388.7L526.854,384.788Z" style="fill:rgb(16,1,10);"/>
            </g>
            <g id="Layer1">
                <g transform="matrix(0.609106,0,0,0.609106,-284.884,-19.0179)">
                    <path d="M752.367,140.78L703.367,98.099L650.254,177.102L661.315,276.214L752.367,140.78Z" style="fill:rgb(255,164,216);"/>
                </g>
                <g transform="matrix(0.609106,0,0,0.609106,-284.884,-19.0179)">
                    <path d="M450.056,205.431L661.315,276.214L650.254,177.102L525.984,135.465L450.056,205.431Z" style="fill:rgb(255,234,247);"/>
                </g>
                <g transform="matrix(0.609106,0,0,0.609106,-284.884,-19.0179)">
                    <path d="M579.097,56.462L703.367,98.099L650.254,177.102L525.984,135.465L579.097,56.462Z" style="fill:rgb(255,206,236);"/>
                </g>
                <g transform="matrix(0.609106,0,0,0.609106,-392.857,-53.5156)">
                    <path d="M755.836,113.099L718.372,126.634L627.32,262.068L703.248,192.102L755.836,113.099Z" style="fill:rgb(255,76,204);"/>
                </g>
                <g transform="matrix(0.609106,0,0,0.609106,-379.067,17.5327)">
                    <path d="M815.939,216.207L604.68,145.424L653.68,188.105L777.95,229.742L815.939,216.207Z" style="fill:rgb(255,126,206);"/>
                </g>
            </g>
            <g id="Visible">
                <g id="Curves">
                    <g transform="matrix(0.577549,0.193511,-0.193511,0.577549,-236.083,-127.893)">
                        <path d="M522.589,156.284L653.648,156.284" style="fill:none;fill-rule:nonzero;stroke:rgb(222,9,136);stroke-width:3.94px;"/>
                    </g>
                    <g transform="matrix(-0.339839,0.505489,-0.505489,-0.339839,287.955,-207.257)">
                        <path d="M504.942,95.964L600.139,95.964" style="fill:none;fill-rule:nonzero;stroke:rgb(222,9,136);stroke-width:7.88px;"/>
                    </g>
                    <g transform="matrix(0.339839,-0.505489,0.505489,0.339839,-172.198,360.153)">
                        <path d="M629.212,137.601L724.409,137.601" style="fill:none;fill-rule:nonzero;stroke:rgb(222,9,136);stroke-width:3.94px;"/>
                    </g>
                    <g transform="matrix(-0.577549,-0.193511,0.193511,-0.577549,327.921,374.286)">
                        <path d="M444.285,240.823L667.086,240.823" style="fill:none;fill-rule:nonzero;stroke:rgb(222,9,136);stroke-width:7.88px;"/>
                    </g>
                    <g transform="matrix(0.577549,0.193511,-0.193511,0.577549,-215.134,-119.128)">
                        <path d="M495.661,268.931L626.72,268.931" style="fill:none;fill-rule:nonzero;stroke:rgb(222,9,136);stroke-width:0.24px;"/>
                    </g>
                    <g transform="matrix(-0.577549,-0.193511,0.193511,-0.577549,461.083,196.773)">
                        <path d="M575.702,77.281L706.762,77.281" style="fill:none;fill-rule:nonzero;stroke:rgb(222,9,136);stroke-width:0.24px;"/>
                    </g>
                    <g transform="matrix(-0.459297,-0.40007,0.40007,-0.459297,131.408,413.121)">
                        <path d="M442.065,226.772L507.047,226.772" style="fill:none;fill-rule:nonzero;stroke:rgb(222,9,136);stroke-width:0.24px;"/>
                    </g>
                    <g transform="matrix(0.0675591,0.605347,-0.605347,0.0675591,207.46,-293.249)">
                        <path d="M605.921,226.658L705.648,226.658" style="fill:none;fill-rule:nonzero;stroke:rgb(222,9,136);stroke-width:3.94px;"/>
                    </g>
                    <g transform="matrix(0.339839,-0.505489,0.505489,0.339839,-221.053,268.575)">
                        <path d="M413.984,137.714L577.18,137.714" style="fill:none;fill-rule:nonzero;stroke:rgb(222,9,136);stroke-width:0.24px;"/>
                    </g>
                    <g transform="matrix(-0.447929,0.412758,-0.412758,-0.447929,301.323,-40.2826)">
                        <path d="M436.396,170.448L539.644,170.448" style="fill:none;fill-rule:nonzero;stroke:rgb(222,9,136);stroke-width:7.88px;"/>
                    </g>
                    <g transform="matrix(-0.573776,0.204428,-0.204428,-0.573776,390.577,-58.7258)">
                        <path d="M539.938,63.229L580.267,63.229" style="fill:none;fill-rule:nonzero;stroke:rgb(222,9,136);stroke-width:0.24px;"/>
                    </g>
                    <g transform="matrix(-0.339839,0.505489,-0.505489,-0.339839,491.262,-178.466)">
                        <path d="M625.243,208.497L788.439,208.497L625.243,208.497" style="fill:none;fill-rule:nonzero;stroke:rgb(222,9,136);stroke-width:0.24px;"/>
                    </g>
                    <g transform="matrix(0.459297,0.40007,-0.40007,0.459297,-128.059,-292.323)">
                        <path d="M760.358,119.44L695.376,119.44L760.358,119.44Z" style="fill:none;fill-rule:nonzero;stroke:rgb(222,9,136);stroke-width:0.24px;"/>
                    </g>
                    <g transform="matrix(0.573776,-0.204429,0.204429,0.573776,-320.041,122.288)">
                        <path d="M622.156,282.982L662.484,282.982L622.156,282.982Z" style="fill:none;fill-rule:nonzero;stroke:rgb(222,9,136);stroke-width:0.24px;"/>
                    </g>
                </g>
            </g>
            <g transform="matrix(-0.459297,-0.40007,0.40007,-0.459297,131.408,413.121)">
                <path d="M543.22,386.712L541.293,396.538L521.537,431.696L513.72,438.637L392.666,488.863L386.534,490.084L321.553,490.084C321.553,490.084 305.671,476.026 305.671,476.026C305.671,476.026 305.437,474.163 305.109,471.54C301.82,445.308 285.38,314.146 285.38,314.146L287.307,304.318L307.062,269.159L314.879,262.219L435.933,211.993L442.065,210.772L507.047,210.772C507.047,210.772 522.927,224.821 522.927,224.821C522.927,224.821 523.117,226.332 523.386,228.48C526.079,249.965 539.692,358.567 542.652,382.176C542.98,384.799 543.22,386.712 543.22,386.712L527.344,388.7L507.047,226.772L442.065,226.772L321.011,276.997L301.255,312.156C301.255,312.156 321.553,474.084 321.553,474.084L386.534,474.084L507.588,423.858L527.344,388.7L543.22,386.712Z" style="fill:rgb(222,9,136);"/>
            </g>
            <g transform="matrix(1.6235,0,0,1.05608,-552.538,-81.582)">
                <path d="M510.172,206.774C502.147,206.774 495.544,204.075 490.361,198.678C485.178,193.281 482.044,185.378 480.957,174.969L494.248,169.765C494.833,174.648 495.878,178.503 497.383,181.33C498.887,184.157 500.747,186.149 502.962,187.305C505.178,188.462 507.581,189.04 510.172,189.04C514.101,189.04 517.047,187.948 519.012,185.763C520.976,183.579 521.958,180.816 521.958,177.475C521.958,174.006 521.018,171.435 519.137,169.765C517.256,168.094 514.393,166.681 510.548,165.524L506.661,164.561C502.398,163.276 498.511,161.509 495,159.26C491.49,157.011 488.668,153.927 486.537,150.008C484.405,146.088 483.339,141.109 483.339,135.069C483.339,125.817 485.576,118.685 490.048,113.674C494.52,108.662 500.392,106.156 507.664,106.156C514.602,106.156 520.328,108.534 524.842,113.288C529.356,118.043 532.282,124.404 533.619,132.371L520.328,138.539C519.66,133.142 518.197,129.319 515.94,127.07C513.683,124.821 510.924,123.697 507.664,123.697C504.321,123.697 501.75,124.596 499.953,126.395C498.156,128.195 497.257,130.765 497.257,134.106C497.257,137.447 498.177,139.952 500.016,141.623C501.855,143.294 504.321,144.514 507.414,145.285L511.301,146.442C515.898,147.727 520.057,149.397 523.776,151.453C527.496,153.509 530.443,156.465 532.616,160.32C534.789,164.175 535.876,169.379 535.876,175.933C535.876,185.828 533.556,193.441 528.917,198.774C524.278,204.107 518.03,206.774 510.172,206.774Z" style="fill:rgb(222,9,136);fill-rule:nonzero;"/>
                <path d="M574.119,205.617C569.354,205.617 565.133,203.979 561.455,200.702C557.777,197.425 554.935,192.799 552.929,186.824C550.922,180.848 549.919,173.877 549.919,165.91L549.919,108.855L564.213,108.855L564.213,164.175C564.213,171.885 565.446,177.604 567.912,181.33C570.378,185.057 573.868,186.92 578.382,186.92C583.481,186.92 587.514,184.35 590.482,179.21C593.449,174.07 594.933,166.681 594.933,157.043L594.933,108.855L609.227,108.855L609.227,204.075L595.184,204.075L595.184,190.775L593.052,190.775C591.965,194.245 589.98,197.586 587.096,200.798C584.212,204.011 579.886,205.617 574.119,205.617Z" style="fill:rgb(222,9,136);fill-rule:nonzero;"/>
                <path d="M624.524,156.85L624.524,153.959C624.524,143.936 625.819,135.359 628.411,128.227C631.002,121.095 634.471,115.633 638.818,111.843C643.164,108.052 647.929,106.156 653.112,106.156C658.963,106.156 663.414,107.763 666.465,110.975C669.516,114.188 671.752,117.657 673.173,121.384L675.305,121.384L675.305,108.855L689.348,108.855L689.348,222.194C689.348,228.49 688.178,233.47 685.837,237.132C683.497,240.794 680.32,242.626 676.308,242.626L634.68,242.626L634.68,223.35L671.418,223.35C673.842,223.35 675.054,221.423 675.054,217.568L675.054,190.004L672.923,190.004C672.003,192.189 670.749,194.405 669.161,196.654C667.573,198.903 665.483,200.798 662.892,202.34C660.3,203.882 657.04,204.653 653.112,204.653C647.929,204.653 643.164,202.758 638.818,198.967C634.471,195.176 631.002,189.715 628.411,182.583C625.819,175.451 624.524,166.874 624.524,156.85ZM657.124,185.185C662.307,185.185 666.612,182.647 670.039,177.571C673.466,172.496 675.18,165.396 675.18,156.272L675.18,154.345C675.18,145.093 673.487,137.961 670.101,132.949C666.716,127.938 662.39,125.432 657.124,125.432C651.941,125.432 647.616,127.938 644.147,132.949C640.678,137.961 638.943,145.093 638.943,154.345L638.943,156.272C638.943,165.396 640.678,172.496 644.147,177.571C647.616,182.647 651.941,185.185 657.124,185.185Z" style="fill:rgb(222,9,136);fill-rule:nonzero;"/>
                <path d="M726.838,206.774C722.492,206.774 718.563,205.585 715.052,203.208C711.541,200.83 708.762,197.393 706.714,192.895C704.666,188.398 703.642,182.872 703.642,176.319C703.642,169.893 704.666,164.496 706.714,160.127C708.762,155.758 711.583,152.449 715.178,150.201C718.772,147.952 722.868,146.827 727.465,146.827L745.396,146.827L745.396,141.045C745.396,136.033 744.392,131.953 742.386,128.805C740.38,125.657 737.245,124.082 732.982,124.082C728.803,124.082 725.647,125.592 723.516,128.612C721.384,131.632 719.984,135.519 719.315,140.274L706.024,133.527C707.028,128.516 708.637,123.954 710.852,119.842C713.067,115.73 716.013,112.421 719.691,109.915C723.369,107.409 727.883,106.156 733.233,106.156C741.341,106.156 747.715,109.273 752.354,115.505C756.994,121.737 759.313,130.765 759.313,142.587L759.313,179.981C759.313,183.836 760.484,185.763 762.824,185.763L768.09,185.763L768.09,204.075L757.934,204.075C754.925,204.075 752.459,202.918 750.536,200.605C748.614,198.292 747.652,195.144 747.652,191.161L747.652,190.775L745.521,190.775C745.019,192.574 744.142,194.759 742.888,197.329C741.634,199.899 739.732,202.115 737.183,203.979C734.633,205.842 731.185,206.774 726.838,206.774ZM729.221,188.655C733.985,188.655 737.872,186.567 740.882,182.39C743.891,178.214 745.396,172.592 745.396,165.524L745.396,163.597L728.343,163.597C725.25,163.597 722.743,164.625 720.82,166.681C718.897,168.737 717.936,171.757 717.936,175.74C717.936,179.595 718.939,182.712 720.945,185.089C722.951,187.466 725.71,188.655 729.221,188.655Z" style="fill:rgb(222,9,136);fill-rule:nonzero;"/>
                <path d="M780.002,204.075L780.002,108.855L794.171,108.855L794.171,119.842L796.302,119.842C797.222,115.858 798.768,112.967 800.941,111.168C803.115,109.369 805.706,108.469 808.715,108.469L816.238,108.469L816.238,128.13L808.465,128.13C804.285,128.13 800.9,129.833 798.308,133.238C795.717,136.644 794.421,141.88 794.421,148.948L794.421,204.075L780.002,204.075Z" style="fill:rgb(222,9,136);fill-rule:nonzero;"/>
            </g>
        </g>
    </g>
</svg>
