<?xml version="1.0" encoding="UTF-8" standalone="no"?>
<!DOCTYPE svg PUBLIC "-//W3C//DTD SVG 1.1//EN" "http://www.w3.org/Graphics/SVG/1.1/DTD/svg11.dtd">
<svg width="100%" height="100%" viewBox="0 0 858 197" version="1.1" xmlns="http://www.w3.org/2000/svg" xmlns:xlink="http://www.w3.org/1999/xlink" xml:space="preserve" xmlns:serif="http://www.serif.com/" style="fill-rule:evenodd;clip-rule:evenodd;stroke-linecap:round;stroke-linejoin:round;stroke-miterlimit:10;">
    <g id="Artboard1" transform="matrix(0.923791,0,0,0.677389,26.3215,24.8285)">
        <rect x="-28.493" y="-36.653" width="928.493" height="290.285" style="fill:none;"/>
        <g id="SceneSilhouetteCurves" transform="matrix(1.0825,0,0,1.47626,22.9522,-26.1699)">
            <g transform="matrix(-0.459297,-0.40007,0.40007,-0.459297,121.408,413.121)">
                <path d="M321.011,276.997L442.065,226.772L507.047,226.772C507.047,226.772 527.344,388.7 527.344,388.7L507.588,423.858L386.534,474.084L321.553,474.084C321.553,474.084 301.255,312.156 301.255,312.156L321.011,276.997Z" style="fill:rgb(244,219,234);fill-rule:nonzero;"/>
                <path d="M526.854,384.788L541.293,396.538L521.537,431.696L513.72,438.637L392.666,488.863L386.534,490.084L321.553,490.084L311.044,462.019C311.043,462.019 305.671,476.026 305.671,476.026C305.671,476.026 305.437,474.163 305.109,471.54C301.82,445.308 285.38,314.146 285.38,314.146L287.307,304.318L307.062,269.159L314.879,262.219L435.933,211.993L442.065,210.772L507.047,210.772L496.538,214.707C496.538,214.707 522.927,224.821 522.927,224.821L543.214,386.662L526.282,380.226L507.047,226.772L442.065,226.772L321.011,276.997L301.255,312.156C301.255,312.156 321.553,474.084 321.553,474.084L386.534,474.084L507.588,423.858L527.344,388.7L526.854,384.788Z" style="fill:rgb(16,1,10);"/>
            </g>
            <g id="Layer1">
                <g transform="matrix(0.609106,0,0,0.609106,-294.884,-19.0179)">
                    <path d="M752.367,140.78L703.367,98.099L650.254,177.102L661.315,276.214L752.367,140.78Z" style="fill:rgb(255,164,216);"/>
                </g>
                <g transform="matrix(0.609106,0,0,0.609106,-294.884,-19.0179)">
                    <path d="M450.056,205.431L661.315,276.214L650.254,177.102L525.984,135.465L450.056,205.431Z" style="fill:rgb(255,234,247);"/>
                </g>
                <g transform="matrix(0.609106,0,0,0.609106,-294.884,-19.0179)">
                    <path d="M579.097,56.462L703.367,98.099L650.254,177.102L525.984,135.465L579.097,56.462Z" style="fill:rgb(255,206,236);"/>
                </g>
                <g transform="matrix(0.609106,0,0,0.609106,-402.857,-53.5156)">
                    <path d="M755.836,113.099L718.372,126.634L627.32,262.068L703.248,192.102L755.836,113.099Z" style="fill:rgb(255,76,204);"/>
                </g>
                <g transform="matrix(0.609106,0,0,0.609106,-389.067,17.5327)">
                    <path d="M815.939,216.207L604.68,145.424L653.68,188.105L777.95,229.742L815.939,216.207Z" style="fill:rgb(255,126,206);"/>
                </g>
            </g>
            <g id="Visible">
                <g id="Curves">
                    <g transform="matrix(0.577549,0.193511,-0.193511,0.577549,-246.083,-127.893)">
                        <path d="M522.589,156.284L653.648,156.284" style="fill:none;fill-rule:nonzero;stroke:rgb(222,9,136);stroke-width:2px;"/>
                    </g>
                    <g transform="matrix(-0.339839,0.505489,-0.505489,-0.339839,277.955,-207.257)">
                        <path d="M504.942,95.964L600.139,95.964" style="fill:none;fill-rule:nonzero;stroke:rgb(222,9,136);stroke-width:4px;"/>
                    </g>
                    <g transform="matrix(0.339839,-0.505489,0.505489,0.339839,-182.198,360.153)">
                        <path d="M629.212,137.601L724.409,137.601" style="fill:none;fill-rule:nonzero;stroke:rgb(222,9,136);stroke-width:2px;"/>
                    </g>
                    <g transform="matrix(-0.577549,-0.193511,0.193511,-0.577549,317.921,374.286)">
                        <path d="M444.285,240.823L667.086,240.823" style="fill:none;fill-rule:nonzero;stroke:rgb(222,9,136);stroke-width:4px;"/>
                    </g>
                    <g transform="matrix(0.577549,0.193511,-0.193511,0.577549,-225.134,-119.128)">
                        <path d="M495.661,268.931L626.72,268.931" style="fill:none;fill-rule:nonzero;stroke:rgb(222,9,136);stroke-width:0.24px;"/>
                    </g>
                    <g transform="matrix(-0.577549,-0.193511,0.193511,-0.577549,451.083,196.773)">
                        <path d="M575.702,77.281L706.762,77.281" style="fill:none;fill-rule:nonzero;stroke:rgb(222,9,136);stroke-width:0.24px;"/>
                    </g>
                    <g transform="matrix(-0.459297,-0.40007,0.40007,-0.459297,121.408,413.121)">
                        <path d="M442.065,226.772L507.047,226.772" style="fill:none;fill-rule:nonzero;stroke:rgb(222,9,136);stroke-width:0.24px;"/>
                    </g>
                    <g transform="matrix(0.0675591,0.605347,-0.605347,0.0675591,197.46,-293.249)">
                        <path d="M605.921,226.658L705.648,226.658" style="fill:none;fill-rule:nonzero;stroke:rgb(222,9,136);stroke-width:2px;"/>
                    </g>
                    <g transform="matrix(0.339839,-0.505489,0.505489,0.339839,-231.053,268.575)">
                        <path d="M413.984,137.714L577.18,137.714" style="fill:none;fill-rule:nonzero;stroke:rgb(222,9,136);stroke-width:0.24px;"/>
                    </g>
                    <g transform="matrix(-0.447929,0.412758,-0.412758,-0.447929,291.323,-40.2826)">
                        <path d="M436.396,170.448L539.644,170.448" style="fill:none;fill-rule:nonzero;stroke:rgb(222,9,136);stroke-width:4px;"/>
                    </g>
                    <g transform="matrix(-0.573776,0.204428,-0.204428,-0.573776,380.577,-58.7258)">
                        <path d="M539.938,63.229L580.267,63.229" style="fill:none;fill-rule:nonzero;stroke:rgb(222,9,136);stroke-width:0.24px;"/>
                    </g>
                    <g transform="matrix(-0.339839,0.505489,-0.505489,-0.339839,481.262,-178.466)">
                        <path d="M625.243,208.497L788.439,208.497L625.243,208.497" style="fill:none;fill-rule:nonzero;stroke:rgb(222,9,136);stroke-width:0.24px;"/>
                    </g>
                    <g transform="matrix(0.459297,0.40007,-0.40007,0.459297,-138.059,-292.323)">
                        <path d="M760.358,119.44L695.376,119.44L760.358,119.44Z" style="fill:none;fill-rule:nonzero;stroke:rgb(222,9,136);stroke-width:0.24px;"/>
                    </g>
                    <g transform="matrix(0.573776,-0.204429,0.204429,0.573776,-330.041,122.288)">
                        <path d="M622.156,282.982L662.484,282.982L622.156,282.982Z" style="fill:none;fill-rule:nonzero;stroke:rgb(222,9,136);stroke-width:0.24px;"/>
                    </g>
                </g>
            </g>
            <g transform="matrix(-0.459297,-0.40007,0.40007,-0.459297,121.408,413.121)">
                <path d="M543.22,386.712L541.293,396.538L521.537,431.696L513.72,438.637L392.666,488.863L386.534,490.084L321.553,490.084C321.553,490.084 305.671,476.026 305.671,476.026C305.671,476.026 305.437,474.163 305.109,471.54C301.82,445.308 285.38,314.146 285.38,314.146L287.307,304.318L307.062,269.159L314.879,262.219L435.933,211.993L442.065,210.772L507.047,210.772C507.047,210.772 522.927,224.821 522.927,224.821C522.927,224.821 523.117,226.332 523.386,228.48C526.079,249.965 539.692,358.567 542.652,382.176C542.98,384.799 543.22,386.712 543.22,386.712L527.344,388.7L507.047,226.772L442.065,226.772L321.011,276.997L301.255,312.156C301.255,312.156 321.553,474.084 321.553,474.084L386.534,474.084L507.588,423.858L527.344,388.7L543.22,386.712Z" style="fill:rgb(222,9,136);"/>
            </g>
            <g transform="matrix(0.706816,0,0,0.706816,-139.033,-57.431)">
                <text x="491.874px" y="276.508px" style="font-family:'MHArchetypeLetra-Book', 'MH Archetype Letra';font-size:288px;fill:rgb(222,9,136);">sugar</text>
            </g>
        </g>
    </g>
</svg>
